<mxfile host="app.diagrams.net" modified="2024-03-05T03:40:16.080Z" agent="Mozilla/5.0 (Windows NT 10.0; Win64; x64) AppleWebKit/537.36 (KHTML, like Gecko) Chrome/122.0.0.0 Safari/537.36" etag="_wuv45HjYkinsdum_Ukj" version="22.1.18" type="google">
  <diagram name="Page-1" id="lmaKrxZ75sjOHhamooZJ">
    <mxGraphModel grid="0" page="0" gridSize="10" guides="1" tooltips="1" connect="1" arrows="1" fold="1" pageScale="1" pageWidth="850" pageHeight="1100" math="0" shadow="0">
      <root>
        <mxCell id="0" />
        <mxCell id="1" parent="0" />
        <mxCell id="jIZ99uV2lW_Mv6TjgBJT-127" value="" style="rounded=0;whiteSpace=wrap;html=1;strokeWidth=1;fillColor=none;" vertex="1" parent="1">
          <mxGeometry x="187" y="319" width="240" height="169" as="geometry" />
        </mxCell>
        <mxCell id="jIZ99uV2lW_Mv6TjgBJT-135" value="" style="rounded=0;whiteSpace=wrap;html=1;strokeWidth=1;fillColor=none;" vertex="1" parent="1">
          <mxGeometry x="521" y="319" width="240" height="169" as="geometry" />
        </mxCell>
        <mxCell id="jIZ99uV2lW_Mv6TjgBJT-136" value="" style="rounded=0;whiteSpace=wrap;html=1;strokeWidth=1;fillColor=none;" vertex="1" parent="1">
          <mxGeometry x="849" y="319" width="240" height="241" as="geometry" />
        </mxCell>
        <mxCell id="jIZ99uV2lW_Mv6TjgBJT-137" value="" style="rounded=0;whiteSpace=wrap;html=1;strokeWidth=1;fillColor=none;" vertex="1" parent="1">
          <mxGeometry x="1183" y="319" width="240" height="169" as="geometry" />
        </mxCell>
        <mxCell id="jIZ99uV2lW_Mv6TjgBJT-138" value="" style="rounded=0;whiteSpace=wrap;html=1;strokeWidth=1;fillColor=none;" vertex="1" parent="1">
          <mxGeometry x="1533" y="319" width="240" height="169" as="geometry" />
        </mxCell>
        <mxCell id="jIZ99uV2lW_Mv6TjgBJT-8" value="clk" style="rounded=0;whiteSpace=wrap;html=1;align=left;fontSize=13;strokeColor=none;fillColor=none;" vertex="1" parent="1">
          <mxGeometry x="187" y="319" width="120" height="24" as="geometry" />
        </mxCell>
        <mxCell id="jIZ99uV2lW_Mv6TjgBJT-9" value="rst_l" style="rounded=0;whiteSpace=wrap;html=1;align=left;fontSize=13;strokeColor=none;fillColor=none;" vertex="1" parent="1">
          <mxGeometry x="187" y="343" width="120" height="24" as="geometry" />
        </mxCell>
        <mxCell id="jIZ99uV2lW_Mv6TjgBJT-10" value="addr_selector" style="rounded=0;whiteSpace=wrap;html=1;align=left;fontSize=13;strokeColor=none;fillColor=none;" vertex="1" parent="1">
          <mxGeometry x="187" y="367" width="120" height="24" as="geometry" />
        </mxCell>
        <mxCell id="jIZ99uV2lW_Mv6TjgBJT-11" value="branch_addr" style="rounded=0;whiteSpace=wrap;html=1;align=left;fontSize=13;strokeColor=none;fillColor=none;" vertex="1" parent="1">
          <mxGeometry x="187" y="391" width="120" height="24" as="geometry" />
        </mxCell>
        <mxCell id="jIZ99uV2lW_Mv6TjgBJT-12" value="" style="rounded=0;whiteSpace=wrap;html=1;align=left;fontSize=13;strokeColor=none;fillColor=none;" vertex="1" parent="1">
          <mxGeometry x="187" y="415" width="120" height="24" as="geometry" />
        </mxCell>
        <mxCell id="jIZ99uV2lW_Mv6TjgBJT-13" value="" style="rounded=0;whiteSpace=wrap;html=1;align=left;fontSize=13;strokeColor=none;fillColor=none;" vertex="1" parent="1">
          <mxGeometry x="187" y="439" width="120" height="24" as="geometry" />
        </mxCell>
        <mxCell id="jIZ99uV2lW_Mv6TjgBJT-14" value="" style="rounded=0;whiteSpace=wrap;html=1;align=left;fontSize=13;strokeColor=none;fillColor=none;" vertex="1" parent="1">
          <mxGeometry x="187" y="463" width="120" height="24" as="geometry" />
        </mxCell>
        <mxCell id="jIZ99uV2lW_Mv6TjgBJT-139" style="edgeStyle=orthogonalEdgeStyle;rounded=0;orthogonalLoop=1;jettySize=auto;html=1;exitX=1;exitY=0.5;exitDx=0;exitDy=0;entryX=0;entryY=0.5;entryDx=0;entryDy=0;" edge="1" parent="1" source="jIZ99uV2lW_Mv6TjgBJT-17" target="jIZ99uV2lW_Mv6TjgBJT-29">
          <mxGeometry relative="1" as="geometry" />
        </mxCell>
        <mxCell id="jIZ99uV2lW_Mv6TjgBJT-17" value="next_pc" style="rounded=0;whiteSpace=wrap;html=1;align=right;fontSize=13;strokeColor=none;fillColor=none;" vertex="1" parent="1">
          <mxGeometry x="307" y="367" width="120" height="24" as="geometry" />
        </mxCell>
        <mxCell id="jIZ99uV2lW_Mv6TjgBJT-140" style="edgeStyle=orthogonalEdgeStyle;rounded=0;orthogonalLoop=1;jettySize=auto;html=1;exitX=1;exitY=0.5;exitDx=0;exitDy=0;entryX=0;entryY=0.5;entryDx=0;entryDy=0;" edge="1" parent="1" source="jIZ99uV2lW_Mv6TjgBJT-18" target="jIZ99uV2lW_Mv6TjgBJT-30">
          <mxGeometry relative="1" as="geometry" />
        </mxCell>
        <mxCell id="jIZ99uV2lW_Mv6TjgBJT-18" value="instr" style="rounded=0;whiteSpace=wrap;html=1;align=right;fontSize=13;strokeColor=none;fillColor=none;" vertex="1" parent="1">
          <mxGeometry x="307" y="391" width="120" height="24" as="geometry" />
        </mxCell>
        <mxCell id="jIZ99uV2lW_Mv6TjgBJT-19" value="" style="rounded=0;whiteSpace=wrap;html=1;align=right;fontSize=13;strokeColor=none;fillColor=none;" vertex="1" parent="1">
          <mxGeometry x="307" y="415" width="120" height="24" as="geometry" />
        </mxCell>
        <mxCell id="jIZ99uV2lW_Mv6TjgBJT-20" value="" style="rounded=0;whiteSpace=wrap;html=1;align=right;fontSize=13;strokeColor=none;fillColor=none;" vertex="1" parent="1">
          <mxGeometry x="307" y="439" width="120" height="24" as="geometry" />
        </mxCell>
        <mxCell id="jIZ99uV2lW_Mv6TjgBJT-21" value="" style="rounded=0;whiteSpace=wrap;html=1;align=right;fontSize=13;strokeColor=none;fillColor=none;" vertex="1" parent="1">
          <mxGeometry x="307" y="463" width="119" height="24" as="geometry" />
        </mxCell>
        <mxCell id="jIZ99uV2lW_Mv6TjgBJT-70" style="edgeStyle=orthogonalEdgeStyle;rounded=0;orthogonalLoop=1;jettySize=auto;html=1;exitX=1;exitY=0.5;exitDx=0;exitDy=0;entryX=0;entryY=0.5;entryDx=0;entryDy=0;fontSize=13;" edge="1" parent="1" source="jIZ99uV2lW_Mv6TjgBJT-36" target="jIZ99uV2lW_Mv6TjgBJT-54">
          <mxGeometry relative="1" as="geometry">
            <Array as="points">
              <mxPoint x="777" y="427" />
              <mxPoint x="777" y="427" />
            </Array>
          </mxGeometry>
        </mxCell>
        <mxCell id="jIZ99uV2lW_Mv6TjgBJT-71" style="edgeStyle=orthogonalEdgeStyle;rounded=0;orthogonalLoop=1;jettySize=auto;html=1;exitX=1;exitY=0.5;exitDx=0;exitDy=0;entryX=0;entryY=0.5;entryDx=0;entryDy=0;fontSize=13;" edge="1" parent="1" source="jIZ99uV2lW_Mv6TjgBJT-35" target="jIZ99uV2lW_Mv6TjgBJT-53">
          <mxGeometry relative="1" as="geometry">
            <Array as="points">
              <mxPoint x="782" y="403" />
              <mxPoint x="782" y="403" />
            </Array>
          </mxGeometry>
        </mxCell>
        <mxCell id="jIZ99uV2lW_Mv6TjgBJT-72" style="edgeStyle=orthogonalEdgeStyle;rounded=0;orthogonalLoop=1;jettySize=auto;html=1;exitX=1;exitY=0.5;exitDx=0;exitDy=0;entryX=0;entryY=0.5;entryDx=0;entryDy=0;fontSize=13;" edge="1" parent="1" source="jIZ99uV2lW_Mv6TjgBJT-34" target="jIZ99uV2lW_Mv6TjgBJT-52">
          <mxGeometry relative="1" as="geometry">
            <Array as="points">
              <mxPoint x="789" y="379" />
              <mxPoint x="789" y="379" />
            </Array>
          </mxGeometry>
        </mxCell>
        <mxCell id="jIZ99uV2lW_Mv6TjgBJT-91" style="edgeStyle=orthogonalEdgeStyle;rounded=0;orthogonalLoop=1;jettySize=auto;html=1;exitX=1;exitY=0.5;exitDx=0;exitDy=0;entryX=0;entryY=0.5;entryDx=0;entryDy=0;fontSize=13;" edge="1" parent="1" source="jIZ99uV2lW_Mv6TjgBJT-57" target="jIZ99uV2lW_Mv6TjgBJT-10">
          <mxGeometry relative="1" as="geometry">
            <Array as="points">
              <mxPoint x="1109" y="331" />
              <mxPoint x="1109" y="191" />
              <mxPoint x="140" y="191" />
              <mxPoint x="140" y="379" />
            </Array>
          </mxGeometry>
        </mxCell>
        <mxCell id="jIZ99uV2lW_Mv6TjgBJT-92" style="edgeStyle=orthogonalEdgeStyle;rounded=0;orthogonalLoop=1;jettySize=auto;html=1;exitX=1;exitY=0.5;exitDx=0;exitDy=0;entryX=0;entryY=0.5;entryDx=0;entryDy=0;fontSize=13;" edge="1" parent="1" source="jIZ99uV2lW_Mv6TjgBJT-58" target="jIZ99uV2lW_Mv6TjgBJT-11">
          <mxGeometry relative="1" as="geometry">
            <Array as="points">
              <mxPoint x="1130" y="355" />
              <mxPoint x="1130" y="167" />
              <mxPoint x="117" y="167" />
              <mxPoint x="117" y="403" />
            </Array>
          </mxGeometry>
        </mxCell>
        <mxCell id="jIZ99uV2lW_Mv6TjgBJT-93" style="edgeStyle=orthogonalEdgeStyle;rounded=0;orthogonalLoop=1;jettySize=auto;html=1;exitX=1;exitY=0.5;exitDx=0;exitDy=0;entryX=0;entryY=0.5;entryDx=0;entryDy=0;fontSize=13;" edge="1" parent="1" source="jIZ99uV2lW_Mv6TjgBJT-59" target="jIZ99uV2lW_Mv6TjgBJT-79">
          <mxGeometry relative="1" as="geometry" />
        </mxCell>
        <mxCell id="jIZ99uV2lW_Mv6TjgBJT-95" style="edgeStyle=orthogonalEdgeStyle;rounded=0;orthogonalLoop=1;jettySize=auto;html=1;exitX=1;exitY=0.5;exitDx=0;exitDy=0;entryX=0;entryY=0.5;entryDx=0;entryDy=0;fontSize=13;" edge="1" parent="1" source="jIZ99uV2lW_Mv6TjgBJT-61" target="jIZ99uV2lW_Mv6TjgBJT-81">
          <mxGeometry relative="1" as="geometry" />
        </mxCell>
        <mxCell id="jIZ99uV2lW_Mv6TjgBJT-114" value="" style="endArrow=classic;html=1;rounded=0;entryX=0;entryY=0.5;entryDx=0;entryDy=0;strokeColor=#FF0000;fontSize=13;" edge="1" parent="1" target="jIZ99uV2lW_Mv6TjgBJT-8">
          <mxGeometry width="50" height="50" relative="1" as="geometry">
            <mxPoint x="163" y="331" as="sourcePoint" />
            <mxPoint x="168" y="335" as="targetPoint" />
          </mxGeometry>
        </mxCell>
        <mxCell id="jIZ99uV2lW_Mv6TjgBJT-115" value="" style="endArrow=classic;html=1;rounded=0;entryX=0;entryY=0.5;entryDx=0;entryDy=0;strokeColor=#FF0000;fontSize=13;" edge="1" parent="1" target="jIZ99uV2lW_Mv6TjgBJT-9">
          <mxGeometry width="50" height="50" relative="1" as="geometry">
            <mxPoint x="163" y="355" as="sourcePoint" />
            <mxPoint x="197" y="341" as="targetPoint" />
          </mxGeometry>
        </mxCell>
        <mxCell id="jIZ99uV2lW_Mv6TjgBJT-117" value="" style="endArrow=classic;html=1;rounded=0;strokeColor=#FF0000;entryX=0;entryY=0.5;entryDx=0;entryDy=0;fontSize=13;" edge="1" parent="1" target="jIZ99uV2lW_Mv6TjgBJT-27">
          <mxGeometry width="50" height="50" relative="1" as="geometry">
            <mxPoint x="497" y="331" as="sourcePoint" />
            <mxPoint x="509" y="334" as="targetPoint" />
          </mxGeometry>
        </mxCell>
        <mxCell id="jIZ99uV2lW_Mv6TjgBJT-118" value="" style="endArrow=classic;html=1;rounded=0;entryX=0;entryY=0.5;entryDx=0;entryDy=0;strokeColor=#FF0000;fontSize=13;" edge="1" parent="1" target="jIZ99uV2lW_Mv6TjgBJT-28">
          <mxGeometry width="50" height="50" relative="1" as="geometry">
            <mxPoint x="497" y="355" as="sourcePoint" />
            <mxPoint x="197" y="365" as="targetPoint" />
          </mxGeometry>
        </mxCell>
        <mxCell id="jIZ99uV2lW_Mv6TjgBJT-47" value="&lt;b style=&quot;font-size: 13px;&quot;&gt;Inputs&lt;/b&gt;" style="rounded=0;whiteSpace=wrap;html=1;fontSize=13;" vertex="1" parent="1">
          <mxGeometry x="849" y="295" width="120" height="24" as="geometry" />
        </mxCell>
        <mxCell id="jIZ99uV2lW_Mv6TjgBJT-48" value="&lt;b style=&quot;font-size: 13px;&quot;&gt;Outputs&lt;/b&gt;" style="rounded=0;whiteSpace=wrap;html=1;fontSize=13;" vertex="1" parent="1">
          <mxGeometry x="969" y="295" width="120" height="24" as="geometry" />
        </mxCell>
        <mxCell id="jIZ99uV2lW_Mv6TjgBJT-49" value="&lt;font style=&quot;font-size: 13px;&quot;&gt;&lt;b style=&quot;font-size: 13px;&quot;&gt;Execute&lt;/b&gt;&lt;/font&gt;" style="rounded=0;whiteSpace=wrap;html=1;fontSize=13;" vertex="1" parent="1">
          <mxGeometry x="849" y="271" width="240" height="24" as="geometry" />
        </mxCell>
        <mxCell id="jIZ99uV2lW_Mv6TjgBJT-52" value="addr_in" style="rounded=0;whiteSpace=wrap;html=1;align=left;fontSize=13;fillColor=none;strokeColor=none;" vertex="1" parent="1">
          <mxGeometry x="849" y="367" width="120" height="24" as="geometry" />
        </mxCell>
        <mxCell id="jIZ99uV2lW_Mv6TjgBJT-53" value="instr_in" style="rounded=0;whiteSpace=wrap;html=1;align=left;fontSize=13;fillColor=none;strokeColor=none;" vertex="1" parent="1">
          <mxGeometry x="849" y="391" width="120" height="24" as="geometry" />
        </mxCell>
        <mxCell id="jIZ99uV2lW_Mv6TjgBJT-54" value="reg_in1" style="rounded=0;whiteSpace=wrap;html=1;align=left;fontSize=13;fillColor=none;strokeColor=none;" vertex="1" parent="1">
          <mxGeometry x="849" y="415" width="120" height="24" as="geometry" />
        </mxCell>
        <mxCell id="jIZ99uV2lW_Mv6TjgBJT-55" value="reg_in2" style="rounded=0;whiteSpace=wrap;html=1;align=left;fontSize=13;fillColor=none;strokeColor=none;" vertex="1" parent="1">
          <mxGeometry x="849" y="439" width="120" height="24" as="geometry" />
        </mxCell>
        <mxCell id="jIZ99uV2lW_Mv6TjgBJT-56" value="immediate_in" style="rounded=0;whiteSpace=wrap;html=1;align=left;fontSize=13;fillColor=none;strokeColor=none;" vertex="1" parent="1">
          <mxGeometry x="849" y="463" width="120" height="24" as="geometry" />
        </mxCell>
        <mxCell id="jIZ99uV2lW_Mv6TjgBJT-57" value="branch_taken" style="rounded=0;whiteSpace=wrap;html=1;align=right;fontSize=13;fillColor=none;strokeColor=none;" vertex="1" parent="1">
          <mxGeometry x="969" y="319" width="120" height="24" as="geometry" />
        </mxCell>
        <mxCell id="jIZ99uV2lW_Mv6TjgBJT-58" value="branch_target" style="rounded=0;whiteSpace=wrap;html=1;align=right;fontSize=13;fillColor=none;strokeColor=none;" vertex="1" parent="1">
          <mxGeometry x="969" y="343" width="120" height="24" as="geometry" />
        </mxCell>
        <mxCell id="jIZ99uV2lW_Mv6TjgBJT-59" value="instr_out" style="rounded=0;whiteSpace=wrap;html=1;align=right;fontSize=13;fillColor=none;strokeColor=none;" vertex="1" parent="1">
          <mxGeometry x="969" y="367" width="120" height="24" as="geometry" />
        </mxCell>
        <mxCell id="jIZ99uV2lW_Mv6TjgBJT-155" style="edgeStyle=orthogonalEdgeStyle;rounded=0;orthogonalLoop=1;jettySize=auto;html=1;exitX=1;exitY=0.5;exitDx=0;exitDy=0;entryX=0;entryY=0.5;entryDx=0;entryDy=0;" edge="1" parent="1" source="jIZ99uV2lW_Mv6TjgBJT-60" target="jIZ99uV2lW_Mv6TjgBJT-80">
          <mxGeometry relative="1" as="geometry" />
        </mxCell>
        <mxCell id="jIZ99uV2lW_Mv6TjgBJT-60" value="alu_result" style="rounded=0;whiteSpace=wrap;html=1;align=right;fontSize=13;fillColor=none;strokeColor=none;" vertex="1" parent="1">
          <mxGeometry x="969" y="391" width="120" height="24" as="geometry" />
        </mxCell>
        <mxCell id="jIZ99uV2lW_Mv6TjgBJT-61" value="reg2_out" style="rounded=0;whiteSpace=wrap;html=1;align=right;fontSize=13;fillColor=none;strokeColor=none;" vertex="1" parent="1">
          <mxGeometry x="969" y="415" width="120" height="24" as="geometry" />
        </mxCell>
        <mxCell id="jIZ99uV2lW_Mv6TjgBJT-62" value="" style="rounded=0;whiteSpace=wrap;html=1;align=right;fontSize=13;fillColor=none;strokeColor=none;" vertex="1" parent="1">
          <mxGeometry x="969" y="439" width="120" height="24" as="geometry" />
        </mxCell>
        <mxCell id="jIZ99uV2lW_Mv6TjgBJT-63" value="" style="rounded=0;whiteSpace=wrap;html=1;align=right;fontSize=13;fillColor=none;strokeColor=none;" vertex="1" parent="1">
          <mxGeometry x="969" y="463" width="120" height="24" as="geometry" />
        </mxCell>
        <mxCell id="jIZ99uV2lW_Mv6TjgBJT-24" value="&lt;b style=&quot;font-size: 13px;&quot;&gt;Inputs&lt;/b&gt;" style="rounded=0;whiteSpace=wrap;html=1;fontSize=13;" vertex="1" parent="1">
          <mxGeometry x="521" y="295" width="120" height="24" as="geometry" />
        </mxCell>
        <mxCell id="jIZ99uV2lW_Mv6TjgBJT-25" value="&lt;b style=&quot;font-size: 13px;&quot;&gt;Outputs&lt;/b&gt;" style="rounded=0;whiteSpace=wrap;html=1;fontSize=13;" vertex="1" parent="1">
          <mxGeometry x="641" y="295" width="120" height="24" as="geometry" />
        </mxCell>
        <mxCell id="jIZ99uV2lW_Mv6TjgBJT-26" value="&lt;font style=&quot;font-size: 13px;&quot;&gt;&lt;b style=&quot;font-size: 13px;&quot;&gt;Decode&lt;/b&gt;&lt;/font&gt;" style="rounded=0;whiteSpace=wrap;html=1;fontSize=13;" vertex="1" parent="1">
          <mxGeometry x="521" y="271" width="240" height="24" as="geometry" />
        </mxCell>
        <mxCell id="jIZ99uV2lW_Mv6TjgBJT-27" value="clk" style="rounded=0;whiteSpace=wrap;html=1;align=left;fontSize=13;fillColor=none;strokeColor=none;" vertex="1" parent="1">
          <mxGeometry x="521" y="319" width="120" height="24" as="geometry" />
        </mxCell>
        <mxCell id="jIZ99uV2lW_Mv6TjgBJT-28" value="rst_l" style="rounded=0;whiteSpace=wrap;html=1;align=left;fontSize=13;fillColor=none;strokeColor=none;" vertex="1" parent="1">
          <mxGeometry x="521" y="343" width="120" height="24" as="geometry" />
        </mxCell>
        <mxCell id="jIZ99uV2lW_Mv6TjgBJT-29" value="addr_in" style="rounded=0;whiteSpace=wrap;html=1;align=left;fontSize=13;fillColor=none;strokeColor=none;" vertex="1" parent="1">
          <mxGeometry x="521" y="367" width="120" height="24" as="geometry" />
        </mxCell>
        <mxCell id="jIZ99uV2lW_Mv6TjgBJT-30" value="instr_in" style="rounded=0;whiteSpace=wrap;html=1;align=left;fontSize=13;fillColor=none;strokeColor=none;" vertex="1" parent="1">
          <mxGeometry x="521" y="391" width="120" height="24" as="geometry" />
        </mxCell>
        <mxCell id="jIZ99uV2lW_Mv6TjgBJT-31" value="writeback_data" style="rounded=0;whiteSpace=wrap;html=1;align=left;fontSize=13;fillColor=none;strokeColor=none;" vertex="1" parent="1">
          <mxGeometry x="521" y="415" width="120" height="24" as="geometry" />
        </mxCell>
        <mxCell id="jIZ99uV2lW_Mv6TjgBJT-32" value="writeback_reg" style="rounded=0;whiteSpace=wrap;html=1;align=left;fontSize=13;fillColor=none;strokeColor=none;" vertex="1" parent="1">
          <mxGeometry x="521" y="439" width="120" height="24" as="geometry" />
        </mxCell>
        <mxCell id="jIZ99uV2lW_Mv6TjgBJT-33" value="writeback_en" style="rounded=0;whiteSpace=wrap;html=1;align=left;fontSize=13;fillColor=none;strokeColor=none;" vertex="1" parent="1">
          <mxGeometry x="521" y="463" width="120" height="24" as="geometry" />
        </mxCell>
        <mxCell id="jIZ99uV2lW_Mv6TjgBJT-34" value="addr_out" style="rounded=0;whiteSpace=wrap;html=1;align=right;fontSize=13;fillColor=none;strokeColor=none;" vertex="1" parent="1">
          <mxGeometry x="641" y="367" width="120" height="24" as="geometry" />
        </mxCell>
        <mxCell id="jIZ99uV2lW_Mv6TjgBJT-35" value="instr_out" style="rounded=0;whiteSpace=wrap;html=1;align=right;fontSize=13;fillColor=none;strokeColor=none;" vertex="1" parent="1">
          <mxGeometry x="641" y="391" width="120" height="24" as="geometry" />
        </mxCell>
        <mxCell id="jIZ99uV2lW_Mv6TjgBJT-36" value="rs1_data" style="rounded=0;whiteSpace=wrap;html=1;align=right;fontSize=13;fillColor=none;strokeColor=none;" vertex="1" parent="1">
          <mxGeometry x="641" y="415" width="120" height="24" as="geometry" />
        </mxCell>
        <mxCell id="jIZ99uV2lW_Mv6TjgBJT-141" style="edgeStyle=orthogonalEdgeStyle;rounded=0;orthogonalLoop=1;jettySize=auto;html=1;exitX=1;exitY=0.5;exitDx=0;exitDy=0;entryX=0;entryY=0.5;entryDx=0;entryDy=0;" edge="1" parent="1" source="jIZ99uV2lW_Mv6TjgBJT-37" target="jIZ99uV2lW_Mv6TjgBJT-55">
          <mxGeometry relative="1" as="geometry" />
        </mxCell>
        <mxCell id="jIZ99uV2lW_Mv6TjgBJT-37" value="rs2_data" style="rounded=0;whiteSpace=wrap;html=1;align=right;fontSize=13;fillColor=none;strokeColor=none;" vertex="1" parent="1">
          <mxGeometry x="641" y="439" width="120" height="24" as="geometry" />
        </mxCell>
        <mxCell id="jIZ99uV2lW_Mv6TjgBJT-142" style="edgeStyle=orthogonalEdgeStyle;rounded=0;orthogonalLoop=1;jettySize=auto;html=1;exitX=1;exitY=0.5;exitDx=0;exitDy=0;entryX=0;entryY=0.5;entryDx=0;entryDy=0;" edge="1" parent="1" source="jIZ99uV2lW_Mv6TjgBJT-38" target="jIZ99uV2lW_Mv6TjgBJT-56">
          <mxGeometry relative="1" as="geometry" />
        </mxCell>
        <mxCell id="jIZ99uV2lW_Mv6TjgBJT-38" value="immediate" style="rounded=0;whiteSpace=wrap;html=1;align=right;fontSize=13;fillColor=none;strokeColor=none;" vertex="1" parent="1">
          <mxGeometry x="641" y="463" width="120" height="24" as="geometry" />
        </mxCell>
        <mxCell id="jIZ99uV2lW_Mv6TjgBJT-39" value="" style="rounded=0;whiteSpace=wrap;html=1;align=right;fontSize=13;fillColor=none;strokeColor=none;" vertex="1" parent="1">
          <mxGeometry x="641" y="319" width="120" height="24" as="geometry" />
        </mxCell>
        <mxCell id="jIZ99uV2lW_Mv6TjgBJT-40" value="" style="rounded=0;whiteSpace=wrap;html=1;align=right;fontSize=13;fillColor=none;strokeColor=none;" vertex="1" parent="1">
          <mxGeometry x="641" y="343" width="120" height="24" as="geometry" />
        </mxCell>
        <mxCell id="jIZ99uV2lW_Mv6TjgBJT-119" value="" style="endArrow=classic;html=1;rounded=0;strokeColor=#FF0000;entryX=0;entryY=0.5;entryDx=0;entryDy=0;fontSize=13;" edge="1" parent="1" target="jIZ99uV2lW_Mv6TjgBJT-121">
          <mxGeometry width="50" height="50" relative="1" as="geometry">
            <mxPoint x="825" y="331" as="sourcePoint" />
            <mxPoint x="837" y="334" as="targetPoint" />
          </mxGeometry>
        </mxCell>
        <mxCell id="jIZ99uV2lW_Mv6TjgBJT-120" value="" style="endArrow=classic;html=1;rounded=0;entryX=0;entryY=0.5;entryDx=0;entryDy=0;strokeColor=#FF0000;fontSize=13;" edge="1" parent="1" target="jIZ99uV2lW_Mv6TjgBJT-122">
          <mxGeometry width="50" height="50" relative="1" as="geometry">
            <mxPoint x="825" y="355" as="sourcePoint" />
            <mxPoint x="525" y="365" as="targetPoint" />
          </mxGeometry>
        </mxCell>
        <mxCell id="jIZ99uV2lW_Mv6TjgBJT-121" value="clk" style="rounded=0;whiteSpace=wrap;html=1;align=left;fontSize=13;fillColor=none;strokeColor=none;" vertex="1" parent="1">
          <mxGeometry x="849" y="319" width="120" height="24" as="geometry" />
        </mxCell>
        <mxCell id="jIZ99uV2lW_Mv6TjgBJT-122" value="rst_l" style="rounded=0;whiteSpace=wrap;html=1;align=left;fontSize=13;fillColor=none;strokeColor=none;" vertex="1" parent="1">
          <mxGeometry x="849" y="343" width="120" height="24" as="geometry" />
        </mxCell>
        <mxCell id="jIZ99uV2lW_Mv6TjgBJT-74" value="&lt;b style=&quot;font-size: 13px;&quot;&gt;Inputs&lt;/b&gt;" style="rounded=0;whiteSpace=wrap;html=1;fontSize=13;" vertex="1" parent="1">
          <mxGeometry x="1183" y="295" width="120" height="24" as="geometry" />
        </mxCell>
        <mxCell id="jIZ99uV2lW_Mv6TjgBJT-75" value="&lt;b style=&quot;font-size: 13px;&quot;&gt;Outputs&lt;/b&gt;" style="rounded=0;whiteSpace=wrap;html=1;fontSize=13;" vertex="1" parent="1">
          <mxGeometry x="1303" y="295" width="120" height="24" as="geometry" />
        </mxCell>
        <mxCell id="jIZ99uV2lW_Mv6TjgBJT-76" value="&lt;span style=&quot;font-size: 13px;&quot;&gt;&lt;b style=&quot;font-size: 13px;&quot;&gt;Memory&lt;/b&gt;&lt;/span&gt;" style="rounded=0;whiteSpace=wrap;html=1;fontSize=13;" vertex="1" parent="1">
          <mxGeometry x="1183" y="271" width="240" height="24" as="geometry" />
        </mxCell>
        <mxCell id="jIZ99uV2lW_Mv6TjgBJT-79" value="instr_in" style="rounded=0;whiteSpace=wrap;html=1;align=left;fontSize=13;fillColor=none;strokeColor=none;" vertex="1" parent="1">
          <mxGeometry x="1183" y="367" width="120" height="24" as="geometry" />
        </mxCell>
        <mxCell id="jIZ99uV2lW_Mv6TjgBJT-80" value="alu_result_in" style="rounded=0;whiteSpace=wrap;html=1;align=left;fontSize=13;fillColor=none;strokeColor=none;" vertex="1" parent="1">
          <mxGeometry x="1183" y="391" width="120" height="24" as="geometry" />
        </mxCell>
        <mxCell id="jIZ99uV2lW_Mv6TjgBJT-81" value="data_in" style="rounded=0;whiteSpace=wrap;html=1;align=left;fontSize=13;fillColor=none;strokeColor=none;" vertex="1" parent="1">
          <mxGeometry x="1183" y="415" width="120" height="24" as="geometry" />
        </mxCell>
        <mxCell id="jIZ99uV2lW_Mv6TjgBJT-82" value="" style="rounded=0;whiteSpace=wrap;html=1;align=left;fontSize=13;fillColor=none;strokeColor=none;" vertex="1" parent="1">
          <mxGeometry x="1183" y="439" width="120" height="24" as="geometry" />
        </mxCell>
        <mxCell id="jIZ99uV2lW_Mv6TjgBJT-83" value="" style="rounded=0;whiteSpace=wrap;html=1;align=left;fontSize=13;fillColor=none;strokeColor=none;" vertex="1" parent="1">
          <mxGeometry x="1183" y="463" width="120" height="24" as="geometry" />
        </mxCell>
        <mxCell id="jIZ99uV2lW_Mv6TjgBJT-131" style="edgeStyle=orthogonalEdgeStyle;rounded=0;orthogonalLoop=1;jettySize=auto;html=1;exitX=1;exitY=0.5;exitDx=0;exitDy=0;entryX=0;entryY=0.5;entryDx=0;entryDy=0;" edge="1" parent="1" source="jIZ99uV2lW_Mv6TjgBJT-84" target="jIZ99uV2lW_Mv6TjgBJT-100">
          <mxGeometry relative="1" as="geometry" />
        </mxCell>
        <mxCell id="jIZ99uV2lW_Mv6TjgBJT-84" value="instr_out" style="rounded=0;whiteSpace=wrap;html=1;align=right;fontSize=13;fillColor=none;strokeColor=none;" vertex="1" parent="1">
          <mxGeometry x="1303" y="319" width="120" height="24" as="geometry" />
        </mxCell>
        <mxCell id="jIZ99uV2lW_Mv6TjgBJT-130" style="edgeStyle=orthogonalEdgeStyle;rounded=0;orthogonalLoop=1;jettySize=auto;html=1;exitX=1;exitY=0.5;exitDx=0;exitDy=0;entryX=0;entryY=0.5;entryDx=0;entryDy=0;" edge="1" parent="1" source="jIZ99uV2lW_Mv6TjgBJT-85" target="jIZ99uV2lW_Mv6TjgBJT-101">
          <mxGeometry relative="1" as="geometry" />
        </mxCell>
        <mxCell id="jIZ99uV2lW_Mv6TjgBJT-85" value="data_mem_out" style="rounded=0;whiteSpace=wrap;html=1;align=right;fontSize=13;fillColor=none;strokeColor=none;" vertex="1" parent="1">
          <mxGeometry x="1303" y="343" width="120" height="24" as="geometry" />
        </mxCell>
        <mxCell id="jIZ99uV2lW_Mv6TjgBJT-129" style="edgeStyle=orthogonalEdgeStyle;rounded=0;orthogonalLoop=1;jettySize=auto;html=1;exitX=1;exitY=0.5;exitDx=0;exitDy=0;entryX=0;entryY=0.5;entryDx=0;entryDy=0;" edge="1" parent="1" source="jIZ99uV2lW_Mv6TjgBJT-86" target="jIZ99uV2lW_Mv6TjgBJT-102">
          <mxGeometry relative="1" as="geometry" />
        </mxCell>
        <mxCell id="jIZ99uV2lW_Mv6TjgBJT-86" value="alu_result_out" style="rounded=0;whiteSpace=wrap;html=1;align=right;fontSize=13;fillColor=none;strokeColor=none;" vertex="1" parent="1">
          <mxGeometry x="1303" y="367" width="120" height="24" as="geometry" />
        </mxCell>
        <mxCell id="jIZ99uV2lW_Mv6TjgBJT-87" value="" style="rounded=0;whiteSpace=wrap;html=1;align=right;fontSize=13;fillColor=none;strokeColor=none;" vertex="1" parent="1">
          <mxGeometry x="1303" y="391" width="120" height="24" as="geometry" />
        </mxCell>
        <mxCell id="jIZ99uV2lW_Mv6TjgBJT-88" value="" style="rounded=0;whiteSpace=wrap;html=1;align=right;fontSize=13;fillColor=none;strokeColor=none;" vertex="1" parent="1">
          <mxGeometry x="1303" y="415" width="120" height="24" as="geometry" />
        </mxCell>
        <mxCell id="jIZ99uV2lW_Mv6TjgBJT-89" value="" style="rounded=0;whiteSpace=wrap;html=1;align=right;fontSize=13;fillColor=none;strokeColor=none;" vertex="1" parent="1">
          <mxGeometry x="1303" y="439" width="120" height="24" as="geometry" />
        </mxCell>
        <mxCell id="jIZ99uV2lW_Mv6TjgBJT-90" value="" style="rounded=0;whiteSpace=wrap;html=1;align=right;fontSize=13;fillColor=none;strokeColor=none;" vertex="1" parent="1">
          <mxGeometry x="1303" y="463" width="120" height="24" as="geometry" />
        </mxCell>
        <mxCell id="jIZ99uV2lW_Mv6TjgBJT-123" value="" style="endArrow=classic;html=1;rounded=0;strokeColor=#FF0000;entryX=0;entryY=0.5;entryDx=0;entryDy=0;fontSize=13;" edge="1" parent="1" target="jIZ99uV2lW_Mv6TjgBJT-125">
          <mxGeometry width="50" height="50" relative="1" as="geometry">
            <mxPoint x="1159" y="331" as="sourcePoint" />
            <mxPoint x="1171" y="334" as="targetPoint" />
          </mxGeometry>
        </mxCell>
        <mxCell id="jIZ99uV2lW_Mv6TjgBJT-124" value="" style="endArrow=classic;html=1;rounded=0;entryX=0;entryY=0.5;entryDx=0;entryDy=0;strokeColor=#FF0000;fontSize=13;" edge="1" parent="1" target="jIZ99uV2lW_Mv6TjgBJT-126">
          <mxGeometry width="50" height="50" relative="1" as="geometry">
            <mxPoint x="1159" y="355" as="sourcePoint" />
            <mxPoint x="859" y="365" as="targetPoint" />
          </mxGeometry>
        </mxCell>
        <mxCell id="jIZ99uV2lW_Mv6TjgBJT-125" value="clk" style="rounded=0;whiteSpace=wrap;html=1;align=left;fontSize=13;fillColor=none;strokeColor=none;" vertex="1" parent="1">
          <mxGeometry x="1183" y="319" width="120" height="24" as="geometry" />
        </mxCell>
        <mxCell id="jIZ99uV2lW_Mv6TjgBJT-126" value="rst_l" style="rounded=0;whiteSpace=wrap;html=1;align=left;fontSize=13;fillColor=none;strokeColor=none;" vertex="1" parent="1">
          <mxGeometry x="1183" y="343" width="120" height="24" as="geometry" />
        </mxCell>
        <mxCell id="jIZ99uV2lW_Mv6TjgBJT-4" value="&lt;b style=&quot;font-size: 13px;&quot;&gt;Inputs&lt;/b&gt;" style="rounded=0;whiteSpace=wrap;html=1;fontSize=13;" vertex="1" parent="1">
          <mxGeometry x="187" y="295" width="120" height="24" as="geometry" />
        </mxCell>
        <mxCell id="jIZ99uV2lW_Mv6TjgBJT-5" value="&lt;b style=&quot;font-size: 13px;&quot;&gt;Outputs&lt;/b&gt;" style="rounded=0;whiteSpace=wrap;html=1;fontSize=13;" vertex="1" parent="1">
          <mxGeometry x="307" y="295" width="120" height="24" as="geometry" />
        </mxCell>
        <mxCell id="jIZ99uV2lW_Mv6TjgBJT-6" value="&lt;font style=&quot;font-size: 13px;&quot;&gt;&lt;b style=&quot;font-size: 13px;&quot;&gt;Fetch&lt;/b&gt;&lt;/font&gt;" style="rounded=0;whiteSpace=wrap;html=1;fontSize=13;" vertex="1" parent="1">
          <mxGeometry x="187" y="271" width="240" height="24" as="geometry" />
        </mxCell>
        <mxCell id="jIZ99uV2lW_Mv6TjgBJT-132" style="edgeStyle=orthogonalEdgeStyle;rounded=0;orthogonalLoop=1;jettySize=auto;html=1;exitX=1;exitY=0.5;exitDx=0;exitDy=0;entryX=0;entryY=0.5;entryDx=0;entryDy=0;" edge="1" parent="1" source="jIZ99uV2lW_Mv6TjgBJT-109" target="jIZ99uV2lW_Mv6TjgBJT-33">
          <mxGeometry relative="1" as="geometry">
            <Array as="points">
              <mxPoint x="1793" y="379" />
              <mxPoint x="1793" y="645" />
              <mxPoint x="501" y="645" />
              <mxPoint x="501" y="475" />
            </Array>
          </mxGeometry>
        </mxCell>
        <mxCell id="jIZ99uV2lW_Mv6TjgBJT-133" style="edgeStyle=orthogonalEdgeStyle;rounded=0;orthogonalLoop=1;jettySize=auto;html=1;exitX=1;exitY=0.5;exitDx=0;exitDy=0;entryX=0;entryY=0.5;entryDx=0;entryDy=0;" edge="1" parent="1" source="jIZ99uV2lW_Mv6TjgBJT-108" target="jIZ99uV2lW_Mv6TjgBJT-32">
          <mxGeometry relative="1" as="geometry">
            <Array as="points">
              <mxPoint x="1809" y="355" />
              <mxPoint x="1809" y="665" />
              <mxPoint x="484" y="665" />
              <mxPoint x="484" y="451" />
            </Array>
          </mxGeometry>
        </mxCell>
        <mxCell id="jIZ99uV2lW_Mv6TjgBJT-134" style="edgeStyle=orthogonalEdgeStyle;rounded=0;orthogonalLoop=1;jettySize=auto;html=1;exitX=1;exitY=0.5;exitDx=0;exitDy=0;entryX=0;entryY=0.5;entryDx=0;entryDy=0;" edge="1" parent="1" source="jIZ99uV2lW_Mv6TjgBJT-107" target="jIZ99uV2lW_Mv6TjgBJT-31">
          <mxGeometry relative="1" as="geometry">
            <Array as="points">
              <mxPoint x="1826" y="331" />
              <mxPoint x="1826" y="683" />
              <mxPoint x="467" y="683" />
              <mxPoint x="467" y="427" />
            </Array>
          </mxGeometry>
        </mxCell>
        <mxCell id="jIZ99uV2lW_Mv6TjgBJT-97" value="&lt;b style=&quot;font-size: 13px;&quot;&gt;Inputs&lt;/b&gt;" style="rounded=0;whiteSpace=wrap;html=1;fontSize=13;" vertex="1" parent="1">
          <mxGeometry x="1533" y="295" width="120" height="24" as="geometry" />
        </mxCell>
        <mxCell id="jIZ99uV2lW_Mv6TjgBJT-98" value="&lt;b style=&quot;font-size: 13px;&quot;&gt;Outputs&lt;/b&gt;" style="rounded=0;whiteSpace=wrap;html=1;fontSize=13;" vertex="1" parent="1">
          <mxGeometry x="1653" y="295" width="120" height="24" as="geometry" />
        </mxCell>
        <mxCell id="jIZ99uV2lW_Mv6TjgBJT-99" value="&lt;span style=&quot;font-size: 13px;&quot;&gt;&lt;b style=&quot;font-size: 13px;&quot;&gt;Writeback&lt;/b&gt;&lt;/span&gt;" style="rounded=0;whiteSpace=wrap;html=1;fontSize=13;" vertex="1" parent="1">
          <mxGeometry x="1533" y="271" width="240" height="24" as="geometry" />
        </mxCell>
        <mxCell id="jIZ99uV2lW_Mv6TjgBJT-100" value="instr_in" style="rounded=0;whiteSpace=wrap;html=1;align=left;fontSize=13;fillColor=none;strokeColor=none;" vertex="1" parent="1">
          <mxGeometry x="1533" y="319" width="120" height="24" as="geometry" />
        </mxCell>
        <mxCell id="jIZ99uV2lW_Mv6TjgBJT-101" value="data_mem_in" style="rounded=0;whiteSpace=wrap;html=1;align=left;fontSize=13;fillColor=none;strokeColor=none;" vertex="1" parent="1">
          <mxGeometry x="1533" y="343" width="120" height="24" as="geometry" />
        </mxCell>
        <mxCell id="jIZ99uV2lW_Mv6TjgBJT-102" value="alu_result_in" style="rounded=0;whiteSpace=wrap;html=1;align=left;fontSize=13;fillColor=none;strokeColor=none;" vertex="1" parent="1">
          <mxGeometry x="1533" y="367" width="120" height="24" as="geometry" />
        </mxCell>
        <mxCell id="jIZ99uV2lW_Mv6TjgBJT-103" value="" style="rounded=0;whiteSpace=wrap;html=1;align=left;fontSize=13;fillColor=none;strokeColor=none;" vertex="1" parent="1">
          <mxGeometry x="1533" y="391" width="120" height="24" as="geometry" />
        </mxCell>
        <mxCell id="jIZ99uV2lW_Mv6TjgBJT-104" value="" style="rounded=0;whiteSpace=wrap;html=1;align=left;fontSize=13;fillColor=none;strokeColor=none;" vertex="1" parent="1">
          <mxGeometry x="1533" y="415" width="120" height="24" as="geometry" />
        </mxCell>
        <mxCell id="jIZ99uV2lW_Mv6TjgBJT-105" value="" style="rounded=0;whiteSpace=wrap;html=1;align=left;fontSize=13;fillColor=none;strokeColor=none;" vertex="1" parent="1">
          <mxGeometry x="1533" y="439" width="120" height="24" as="geometry" />
        </mxCell>
        <mxCell id="jIZ99uV2lW_Mv6TjgBJT-106" value="" style="rounded=0;whiteSpace=wrap;html=1;align=left;fontSize=13;fillColor=none;strokeColor=none;" vertex="1" parent="1">
          <mxGeometry x="1533" y="463" width="120" height="24" as="geometry" />
        </mxCell>
        <mxCell id="jIZ99uV2lW_Mv6TjgBJT-107" value="writeback_data" style="rounded=0;whiteSpace=wrap;html=1;align=right;fontSize=13;fillColor=none;strokeColor=none;" vertex="1" parent="1">
          <mxGeometry x="1653" y="319" width="120" height="24" as="geometry" />
        </mxCell>
        <mxCell id="jIZ99uV2lW_Mv6TjgBJT-108" value="writeback_address" style="rounded=0;whiteSpace=wrap;html=1;align=right;fontSize=13;fillColor=none;strokeColor=none;" vertex="1" parent="1">
          <mxGeometry x="1653" y="343" width="120" height="24" as="geometry" />
        </mxCell>
        <mxCell id="jIZ99uV2lW_Mv6TjgBJT-109" value="writeback_enable" style="rounded=0;whiteSpace=wrap;html=1;align=right;fontSize=13;fillColor=none;strokeColor=none;" vertex="1" parent="1">
          <mxGeometry x="1653" y="367" width="120" height="24" as="geometry" />
        </mxCell>
        <mxCell id="jIZ99uV2lW_Mv6TjgBJT-110" value="" style="rounded=0;whiteSpace=wrap;html=1;align=right;fontSize=13;fillColor=none;strokeColor=none;" vertex="1" parent="1">
          <mxGeometry x="1653" y="391" width="120" height="24" as="geometry" />
        </mxCell>
        <mxCell id="jIZ99uV2lW_Mv6TjgBJT-111" value="" style="rounded=0;whiteSpace=wrap;html=1;align=right;fontSize=13;fillColor=none;strokeColor=none;" vertex="1" parent="1">
          <mxGeometry x="1653" y="415" width="120" height="24" as="geometry" />
        </mxCell>
        <mxCell id="jIZ99uV2lW_Mv6TjgBJT-112" value="" style="rounded=0;whiteSpace=wrap;html=1;align=right;fontSize=13;fillColor=none;strokeColor=none;" vertex="1" parent="1">
          <mxGeometry x="1653" y="439" width="120" height="24" as="geometry" />
        </mxCell>
        <mxCell id="jIZ99uV2lW_Mv6TjgBJT-113" value="" style="rounded=0;whiteSpace=wrap;html=1;align=right;fontSize=13;fillColor=none;strokeColor=none;" vertex="1" parent="1">
          <mxGeometry x="1653" y="463" width="120" height="24" as="geometry" />
        </mxCell>
        <mxCell id="jIZ99uV2lW_Mv6TjgBJT-153" style="edgeStyle=orthogonalEdgeStyle;rounded=0;orthogonalLoop=1;jettySize=auto;html=1;exitX=0;exitY=0.5;exitDx=0;exitDy=0;startArrow=classic;startFill=1;endArrow=none;endFill=0;" edge="1" parent="1" source="jIZ99uV2lW_Mv6TjgBJT-143">
          <mxGeometry relative="1" as="geometry">
            <mxPoint x="1134" y="403" as="targetPoint" />
            <Array as="points">
              <mxPoint x="799" y="499" />
              <mxPoint x="799" y="614" />
              <mxPoint x="1134" y="614" />
            </Array>
          </mxGeometry>
        </mxCell>
        <mxCell id="jIZ99uV2lW_Mv6TjgBJT-143" value="fast_track_reg_mem" style="rounded=0;whiteSpace=wrap;html=1;align=left;fontSize=13;fillColor=none;strokeColor=none;" vertex="1" parent="1">
          <mxGeometry x="849" y="487" width="120" height="24" as="geometry" />
        </mxCell>
        <mxCell id="jIZ99uV2lW_Mv6TjgBJT-152" style="edgeStyle=orthogonalEdgeStyle;rounded=0;orthogonalLoop=1;jettySize=auto;html=1;exitX=0;exitY=0.5;exitDx=0;exitDy=0;startArrow=classic;startFill=1;endArrow=none;endFill=0;" edge="1" parent="1" source="jIZ99uV2lW_Mv6TjgBJT-144" target="jIZ99uV2lW_Mv6TjgBJT-149">
          <mxGeometry relative="1" as="geometry">
            <Array as="points">
              <mxPoint x="815" y="523" />
              <mxPoint x="815" y="597" />
              <mxPoint x="1484" y="597" />
            </Array>
          </mxGeometry>
        </mxCell>
        <mxCell id="jIZ99uV2lW_Mv6TjgBJT-144" value="fast_track_reg_wb" style="rounded=0;whiteSpace=wrap;html=1;align=left;fontSize=13;fillColor=none;strokeColor=none;" vertex="1" parent="1">
          <mxGeometry x="849" y="511" width="120" height="24" as="geometry" />
        </mxCell>
        <mxCell id="jIZ99uV2lW_Mv6TjgBJT-151" style="edgeStyle=orthogonalEdgeStyle;rounded=0;orthogonalLoop=1;jettySize=auto;html=1;exitX=0;exitY=0.5;exitDx=0;exitDy=0;startArrow=classic;startFill=1;endArrow=none;endFill=0;" edge="1" parent="1" source="jIZ99uV2lW_Mv6TjgBJT-145" target="jIZ99uV2lW_Mv6TjgBJT-150">
          <mxGeometry relative="1" as="geometry">
            <Array as="points">
              <mxPoint x="829" y="547" />
              <mxPoint x="829" y="581" />
              <mxPoint x="1450" y="581" />
            </Array>
          </mxGeometry>
        </mxCell>
        <mxCell id="jIZ99uV2lW_Mv6TjgBJT-145" value="fast_track_data_mem" style="rounded=0;whiteSpace=wrap;html=1;align=left;fontSize=13;fillColor=none;strokeColor=none;" vertex="1" parent="1">
          <mxGeometry x="849" y="535" width="120" height="24" as="geometry" />
        </mxCell>
        <mxCell id="jIZ99uV2lW_Mv6TjgBJT-149" value="" style="shape=waypoint;sketch=0;fillStyle=solid;size=6;pointerEvents=1;points=[];fillColor=none;resizable=0;rotatable=0;perimeter=centerPerimeter;snapToPoint=1;" vertex="1" parent="1">
          <mxGeometry x="1474" y="369" width="20" height="20" as="geometry" />
        </mxCell>
        <mxCell id="jIZ99uV2lW_Mv6TjgBJT-150" value="" style="shape=waypoint;sketch=0;fillStyle=solid;size=6;pointerEvents=1;points=[];fillColor=none;resizable=0;rotatable=0;perimeter=centerPerimeter;snapToPoint=1;" vertex="1" parent="1">
          <mxGeometry x="1440" y="345" width="20" height="20" as="geometry" />
        </mxCell>
        <mxCell id="jIZ99uV2lW_Mv6TjgBJT-154" value="" style="shape=waypoint;sketch=0;fillStyle=solid;size=6;pointerEvents=1;points=[];fillColor=none;resizable=0;rotatable=0;perimeter=centerPerimeter;snapToPoint=1;" vertex="1" parent="1">
          <mxGeometry x="1124" y="393" width="20" height="20" as="geometry" />
        </mxCell>
      </root>
    </mxGraphModel>
  </diagram>
</mxfile>
